Coordinates
version=1
nRows=10
nColumns=46
inDegrees=yes

Units are S.I. units (second, meters, Newtons, ...)
Angles are in degrees.

endheader
time	pelvis_tilt	pelvis_list	pelvis_rotation	pelvis_tx	pelvis_ty	pelvis_tz	bb_angle	bb_tx	bb_ty	bb_tz	hip_flexion_r	hip_adduction_r	hip_rotation_r	knee_angle_r	knee_angle_r_beta	ankle_angle_r	subtalar_angle_r	mtp_angle_r	crank_angle_r	hip_flexion_l	hip_adduction_l	hip_rotation_l	knee_angle_l	knee_angle_l_beta	ankle_angle_l	subtalar_angle_l	mtp_angle_l	crank_angle_l	lumbar_extension	lumbar_bending	lumbar_rotation	arm_flex_r	arm_add_r	arm_rot_r	elbow_flex_r	pro_sup_r	wrist_flex_r	wrist_dev_r	arm_flex_l	arm_add_l	arm_rot_l	elbow_flex_l	pro_sup_l	wrist_flex_l	wrist_dev_l
      0.00500000	    -21.77826431	      0.37574178	      2.12855477	      0.12635034	      1.03517277	     -0.23573745	      0.00000000	      0.50000000	      0.00000000	      0.25000000	     55.12474648	     -7.55708155	     -1.30729246	     70.97795474	      1.23879901	     16.79341980	      1.98186324	      0.00000000	      0.00000000	     87.67935034	     -6.31982354	     -1.61911931	     76.98052305	      1.34356359	      3.03279954	     -4.79024694	      0.00000000	      0.00000000	    -50.39590115	     -1.66611881	     -3.38250977	     89.65894687	     -7.19670457	     26.34763945	     41.12441627	     24.83950756	      0.00000000	      0.00000000	     89.58123551	    -11.42851593	     26.49926726	     48.45700261	     25.52674416	      0.00000000	      0.00000000
      0.01000000	    -21.75930917	      0.41702868	      2.11615184	      0.12637926	      1.03518236	     -0.23574452	      0.00000000	      0.50000000	      0.00000000	      0.25000000	     55.11236643	     -7.58484441	     -1.27103042	     70.99037907	      1.23901585	     16.81545703	      2.00978130	      0.00000000	      0.00000000	     87.64894695	     -6.32373704	     -1.66294082	     76.98400463	      1.34362435	      3.04513730	     -4.79668364	      0.00000000	      0.00000000	    -50.41338329	     -1.71513353	     -3.45640171	     89.66086593	     -7.10045713	     26.11424062	     40.78202306	     26.39657911	      0.00000000	      0.00000000	     89.57827785	    -11.48053030	     26.44862472	     48.19122944	     27.09185785	      0.00000000	      0.00000000
      0.01500000	    -21.79982310	      0.37820337	      2.06310778	      0.12636283	      1.03510502	     -0.23562588	      0.00000000	      0.50000000	      0.00000000	      0.25000000	     55.15543781	     -7.48316786	     -1.24904490	     70.96445103	      1.23856332	     16.74564832	      1.82846956	      0.00000000	      0.00000000	     87.70680960	     -6.39682574	     -1.63218491	     76.99199963	      1.34376389	      3.02824164	     -4.76654527	      0.00000000	      0.00000000	    -50.36812376	     -1.70514674	     -3.31623479	     89.65834484	     -7.19848062	     26.12220353	     40.57338668	     28.18390816	      0.00000000	      0.00000000	     89.58514143	    -11.45092477	     26.47419288	     47.77483244	     28.88066083	      0.00000000	      0.00000000
      0.02000000	    -21.67235962	      0.37744059	      2.18567011	      0.12642939	      1.03540230	     -0.23522073	      0.00000000	      0.50000000	      0.00000000	      0.25000000	     54.96905999	     -7.51321263	     -1.30829319	     70.93910829	      1.23812101	     16.81257148	      1.76059293	      0.00000000	      0.00000000	     87.55822375	     -6.34505122	     -1.64437225	     76.94770415	      1.34299079	      2.99423859	     -4.70796438	      0.00000000	      0.00000000	    -50.58384544	     -1.66881838	     -3.39905831	     89.65373529	     -7.21785401	     25.84219522	     40.79416392	     28.68254413	      0.00000000	      0.00000000	     89.58614546	    -11.47605243	     26.19763871	     48.02930411	     29.38586270	      0.00000000	      0.00000000
      0.02500000	    -21.81417150	      0.38271808	      2.17746101	      0.12630961	      1.03531499	     -0.23528407	      0.00000000	      0.50000000	      0.00000000	      0.25000000	     55.15069017	     -7.54366645	     -1.30374604	     70.98386950	      1.23890224	     16.82546488	      1.81641599	      0.00000000	      0.00000000	     87.71165517	     -6.33967333	     -1.61388440	     76.95926719	      1.34319260	      3.01164995	     -4.63809377	      0.00000000	      0.00000000	    -50.34945707	     -1.67269015	     -3.44196850	     89.65642289	     -7.14095175	     26.03584187	     40.35733376	     28.94132513	      0.00000000	      0.00000000	     89.58438824	    -11.53016396	     26.38252604	     47.66012977	     29.65984116	      0.00000000	      0.00000000
      0.03000000	    -21.74240951	      0.36156874	      2.14738985	      0.12642498	      1.03553047	     -0.23520894	      0.00000000	      0.50000000	      0.00000000	      0.25000000	     55.04204131	     -7.50266066	     -1.30475823	     70.94574921	      1.23823691	     16.86712842	      1.85049907	      0.00000000	      0.00000000	     87.63410251	     -6.39544085	     -1.63989299	     76.96773923	      1.34334047	      3.01979245	     -4.70038430	      0.00000000	      0.00000000	    -50.49927217	     -1.66886520	     -3.36588197	     89.65755160	     -7.13570621	     25.72694696	     40.39055056	     30.02587387	      0.00000000	      0.00000000	     89.57992364	    -11.52874021	     26.12739742	     47.72337460	     30.75291127	      0.00000000	      0.00000000
      0.03500000	    -21.73618305	      0.34923201	      2.10738016	      0.12642296	      1.03551499	     -0.23515464	      0.00000000	      0.50000000	      0.00000000	      0.25000000	     55.04724739	     -7.46276985	     -1.28702038	     70.97101538	      1.23867789	     16.98015830	      2.05562410	      0.00000000	      0.00000000	     87.63623562	     -6.43510521	     -1.62760305	     76.97499312	      1.34346707	      2.96034326	     -4.79963016	      0.00000000	      0.00000000	    -50.50339934	     -1.70006613	     -3.41550867	     89.65716197	     -7.05219765	     25.55975762	     40.27472650	     30.45158156	      0.00000000	      0.00000000	     89.57663919	    -11.60324593	     25.98148884	     47.78437346	     31.28397533	      0.00000000	      0.00000000
      0.04000000	    -21.84084682	      0.31754941	      2.14627412	      0.12642564	      1.03537454	     -0.23518220	      0.00000000	      0.50000000	      0.00000000	      0.25000000	     55.15195697	     -7.45680750	     -1.34050372	     70.95147356	      1.23833682	     16.80048420	      1.70514804	      0.00000000	      0.00000000	     87.75863701	     -6.39594840	     -1.57836323	     76.96398913	      1.34327502	      2.95770936	     -4.69294945	      0.00000000	      0.00000000	    -50.35157368	     -1.66539525	     -3.38226978	     89.65545783	     -7.26373300	     25.97029983	     39.91163432	     32.20036478	      0.00000000	      0.00000000	     89.58568507	    -11.65523935	     26.41857040	     47.16368911	     33.09979096	      0.00000000	      0.00000000
      0.04500000	    -21.77033128	      0.35903980	      2.17560966	      0.12644537	      1.03548924	     -0.23526855	      0.00000000	      0.50000000	      0.00000000	      0.25000000	     55.07537415	     -7.53144322	     -1.32339898	     70.97934735	      1.23882331	     16.95060821	      1.97789265	      0.00000000	      0.00000000	     87.67162438	     -6.35183214	     -1.61816081	     76.95979325	      1.34320178	      2.93224516	     -4.75655395	      0.00000000	      0.00000000	    -50.47928902	     -1.66356653	     -3.45873286	     89.65592267	     -7.19449036	     25.73764283	     40.04478288	     32.09757392	      0.00000000	      0.00000000	     89.57829386	    -11.66741408	     26.05808212	     47.47189812	     33.11410161	      0.00000000	      0.00000000
      0.05000000	    -21.81925291	      0.36617775	      2.07503395	      0.12630941	      1.03534895	     -0.23543102	      0.00000000	      0.50000000	      0.00000000	      0.25000000	     55.17273911	     -7.47812393	     -1.26375653	     70.97317686	      1.23871562	     16.82852763	      1.84200912	      0.00000000	      0.00000000	     87.74192342	     -6.41734687	     -1.61658965	     76.99023498	      1.34373309	      2.95363199	     -4.75121174	      0.00000000	      0.00000000	    -50.37068112	     -1.72601517	     -3.37428638	     89.65876059	     -7.23010167	     25.98349984	     39.89267596	     32.24682360	      0.00000000	      0.00000000	     89.58350988	    -11.58582343	     26.27857897	     47.06912235	     33.21802712	      0.00000000	      0.00000000
